HIERARCHY
ROOT mixamorig:Hips
{
	OFFSET -0.000008 104.274872 1.554316
	CHANNELS 6 Xposition Yposition Zposition Xrotation Yrotation Zrotation
	JOINT mixamorig:Spine
	{
		OFFSET -0.000005 10.181595 0.131519
		CHANNELS 6 Xposition Yposition Zposition Xrotation Yrotation Zrotation
		JOINT mixamorig:Spine1
		{
			OFFSET -0.000000 9.893959 -1.470707
			CHANNELS 6 Xposition Yposition Zposition Xrotation Yrotation Zrotation
			JOINT mixamorig:Spine2
			{
				OFFSET -0.000000 9.220757 -1.370641
				CHANNELS 6 Xposition Yposition Zposition Xrotation Yrotation Zrotation
				JOINT mixamorig:Neck
				{
					OFFSET 0.000001 16.740417 -2.049036
					CHANNELS 6 Xposition Yposition Zposition Xrotation Yrotation Zrotation
					JOINT mixamorig:Head
					{
						OFFSET 0.000000 9.617874 1.685006
						CHANNELS 6 Xposition Yposition Zposition Xrotation Yrotation Zrotation
						JOINT mixamorig:HeadTop_End
						{
							OFFSET 0.000002 22.037354 7.501101
							CHANNELS 6 Xposition Yposition Zposition Xrotation Yrotation Zrotation
							End Site
							{
								OFFSET 0.000168 2310.654297 -282.823242
							}
						}
					}
				}
				JOINT mixamorig:RightShoulder
				{
					OFFSET -4.569970 11.014908 -2.160885
					CHANNELS 6 Xposition Yposition Zposition Xrotation Yrotation Zrotation
					JOINT mixamorig:RightArm
					{
						OFFSET -10.592851 -0.524811 -2.232101
						CHANNELS 6 Xposition Yposition Zposition Xrotation Yrotation Zrotation
						JOINT mixamorig:RightForeArm
						{
							OFFSET -27.841511 0.000031 -0.000004
							CHANNELS 6 Xposition Yposition Zposition Xrotation Yrotation Zrotation
							JOINT mixamorig:RightHand
							{
								OFFSET -28.328831 -0.000015 0.000015
								CHANNELS 6 Xposition Yposition Zposition Xrotation Yrotation Zrotation
								JOINT mixamorig:RightHandThumb1
								{
									OFFSET -2.464806 -1.573990 2.681852
									CHANNELS 6 Xposition Yposition Zposition Xrotation Yrotation Zrotation
									JOINT mixamorig:RightHandThumb2
									{
										OFFSET -3.215179 -1.872803 1.924282
										CHANNELS 6 Xposition Yposition Zposition Xrotation Yrotation Zrotation
										JOINT mixamorig:RightHandThumb3
										{
											OFFSET -2.654831 -1.527969 1.512609
											CHANNELS 6 Xposition Yposition Zposition Xrotation Yrotation Zrotation
											JOINT mixamorig:RightHandThumb4
											{
												OFFSET -2.018814 -1.152008 1.108052
												CHANNELS 6 Xposition Yposition Zposition Xrotation Yrotation Zrotation
												End Site
												{
													OFFSET -188.809540 -114.533607 132.431396
												}
											}
										}
									}
								}
								JOINT mixamorig:RightHandIndex1
								{
									OFFSET -9.108284 -0.517868 2.259835
									CHANNELS 6 Xposition Yposition Zposition Xrotation Yrotation Zrotation
									JOINT mixamorig:RightHandIndex2
									{
										OFFSET -3.699989 0.000000 0.001215
										CHANNELS 6 Xposition Yposition Zposition Xrotation Yrotation Zrotation
										JOINT mixamorig:RightHandIndex3
										{
											OFFSET -2.850006 0.000031 -0.000522
											CHANNELS 6 Xposition Yposition Zposition Xrotation Yrotation Zrotation
											JOINT mixamorig:RightHandIndex4
											{
												OFFSET -2.772186 -0.000015 -0.000020
												CHANNELS 6 Xposition Yposition Zposition Xrotation Yrotation Zrotation
												End Site
												{
													OFFSET -277.218445 0.000000 -0.050231
												}
											}
										}
									}
								}
								JOINT mixamorig:RightHandMiddle1
								{
									OFFSET -9.532516 -0.000031 -0.000023
									CHANNELS 6 Xposition Yposition Zposition Xrotation Yrotation Zrotation
									JOINT mixamorig:RightHandMiddle2
									{
										OFFSET -3.700005 -0.000015 0.003713
										CHANNELS 6 Xposition Yposition Zposition Xrotation Yrotation Zrotation
										JOINT mixamorig:RightHandMiddle3
										{
											OFFSET -2.949974 0.000015 -0.002054
											CHANNELS 6 Xposition Yposition Zposition Xrotation Yrotation Zrotation
											JOINT mixamorig:RightHandMiddle4
											{
												OFFSET -2.946640 0.000000 -0.000156
												CHANNELS 6 Xposition Yposition Zposition Xrotation Yrotation Zrotation
												End Site
												{
													OFFSET -294.664337 0.000000 -0.113670
												}
											}
										}
									}
								}
								JOINT mixamorig:RightHandRing1
								{
									OFFSET -9.103600 -0.043076 -1.865134
									CHANNELS 6 Xposition Yposition Zposition Xrotation Yrotation Zrotation
									JOINT mixamorig:RightHandRing2
									{
										OFFSET -3.379288 0.000000 -0.001055
										CHANNELS 6 Xposition Yposition Zposition Xrotation Yrotation Zrotation
										JOINT mixamorig:RightHandRing3
										{
											OFFSET -2.889687 -0.000015 0.000379
											CHANNELS 6 Xposition Yposition Zposition Xrotation Yrotation Zrotation
											JOINT mixamorig:RightHandRing4
											{
												OFFSET -2.638809 -0.000015 0.000941
												CHANNELS 6 Xposition Yposition Zposition Xrotation Yrotation Zrotation
												End Site
												{
													OFFSET -263.880371 0.000000 0.516020
												}
											}
										}
									}
								}
								JOINT mixamorig:RightHandPinky1
								{
									OFFSET -8.076683 -0.486710 -3.806280
									CHANNELS 6 Xposition Yposition Zposition Xrotation Yrotation Zrotation
									JOINT mixamorig:RightHandPinky2
									{
										OFFSET -3.600014 -0.000015 -0.003747
										CHANNELS 6 Xposition Yposition Zposition Xrotation Yrotation Zrotation
										JOINT mixamorig:RightHandPinky3
										{
											OFFSET -2.099983 0.000000 -0.005739
											CHANNELS 6 Xposition Yposition Zposition Xrotation Yrotation Zrotation
											JOINT mixamorig:RightHandPinky4
											{
												OFFSET -2.115768 -0.000031 -0.003680
												CHANNELS 6 Xposition Yposition Zposition Xrotation Yrotation Zrotation
												End Site
												{
													OFFSET -211.577087 0.000000 -0.350686
												}
											}
										}
									}
								}
							}
						}
					}
				}
				JOINT mixamorig:LeftShoulder
				{
					OFFSET 4.570447 11.014725 -2.160855
					CHANNELS 6 Xposition Yposition Zposition Xrotation Yrotation Zrotation
					JOINT mixamorig:LeftArm
					{
						OFFSET 10.592371 -0.524597 -2.232119
						CHANNELS 6 Xposition Yposition Zposition Xrotation Yrotation Zrotation
						JOINT mixamorig:LeftForeArm
						{
							OFFSET 27.841532 -0.000031 0.000026
							CHANNELS 6 Xposition Yposition Zposition Xrotation Yrotation Zrotation
							JOINT mixamorig:LeftHand
							{
								OFFSET 28.328846 -0.000061 0.000022
								CHANNELS 6 Xposition Yposition Zposition Xrotation Yrotation Zrotation
								JOINT mixamorig:LeftHandThumb1
								{
									OFFSET 2.466141 -1.576172 2.681732
									CHANNELS 6 Xposition Yposition Zposition Xrotation Yrotation Zrotation
									JOINT mixamorig:LeftHandThumb2
									{
										OFFSET 3.217812 -1.872070 1.916482
										CHANNELS 6 Xposition Yposition Zposition Xrotation Yrotation Zrotation
										JOINT mixamorig:LeftHandThumb3
										{
											OFFSET 2.656029 -1.528778 1.514513
											CHANNELS 6 Xposition Yposition Zposition Xrotation Yrotation Zrotation
											JOINT mixamorig:LeftHandThumb4
											{
												OFFSET 2.020889 -1.154053 1.115139
												CHANNELS 6 Xposition Yposition Zposition Xrotation Yrotation Zrotation
												End Site
												{
													OFFSET 190.885437 -115.081749 130.048782
												}
											}
										}
									}
								}
								JOINT mixamorig:LeftHandIndex1
								{
									OFFSET 9.109314 -0.518021 2.259871
									CHANNELS 6 Xposition Yposition Zposition Xrotation Yrotation Zrotation
									JOINT mixamorig:LeftHandIndex2
									{
										OFFSET 3.699989 0.000000 -0.000322
										CHANNELS 6 Xposition Yposition Zposition Xrotation Yrotation Zrotation
										JOINT mixamorig:LeftHandIndex3
										{
											OFFSET 2.850006 0.000000 0.000352
											CHANNELS 6 Xposition Yposition Zposition Xrotation Yrotation Zrotation
											JOINT mixamorig:LeftHandIndex4
											{
												OFFSET 2.774864 -0.000031 -0.000027
												CHANNELS 6 Xposition Yposition Zposition Xrotation Yrotation Zrotation
												End Site
												{
													OFFSET 277.486267 0.000000 -0.009857
												}
											}
										}
									}
								}
								JOINT mixamorig:LeftHandMiddle1
								{
									OFFSET 9.533394 0.000061 0.000044
									CHANNELS 6 Xposition Yposition Zposition Xrotation Yrotation Zrotation
									JOINT mixamorig:LeftHandMiddle2
									{
										OFFSET 3.699989 -0.000015 -0.000231
										CHANNELS 6 Xposition Yposition Zposition Xrotation Yrotation Zrotation
										JOINT mixamorig:LeftHandMiddle3
										{
											OFFSET 2.949997 -0.000015 -0.000059
											CHANNELS 6 Xposition Yposition Zposition Xrotation Yrotation Zrotation
											JOINT mixamorig:LeftHandMiddle4
											{
												OFFSET 2.952896 0.000031 0.000063
												CHANNELS 6 Xposition Yposition Zposition Xrotation Yrotation Zrotation
												End Site
												{
													OFFSET 295.289337 0.000000 0.022810
												}
											}
										}
									}
								}
								JOINT mixamorig:LeftHandRing1
								{
									OFFSET 9.104523 -0.042999 -1.865074
									CHANNELS 6 Xposition Yposition Zposition Xrotation Yrotation Zrotation
									JOINT mixamorig:LeftHandRing2
									{
										OFFSET 3.150009 -0.000031 0.000043
										CHANNELS 6 Xposition Yposition Zposition Xrotation Yrotation Zrotation
										JOINT mixamorig:LeftHandRing3
										{
											OFFSET 2.949982 -0.000015 0.000040
											CHANNELS 6 Xposition Yposition Zposition Xrotation Yrotation Zrotation
											JOINT mixamorig:LeftHandRing4
											{
												OFFSET 2.644348 0.000000 0.000057
												CHANNELS 6 Xposition Yposition Zposition Xrotation Yrotation Zrotation
												End Site
												{
													OFFSET 264.434631 0.000000 0.012105
												}
											}
										}
									}
								}
								JOINT mixamorig:LeftHandPinky1
								{
									OFFSET 8.077789 -0.486847 -3.806259
									CHANNELS 6 Xposition Yposition Zposition Xrotation Yrotation Zrotation
									JOINT mixamorig:LeftHandPinky2
									{
										OFFSET 3.599953 0.000031 0.014727
										CHANNELS 6 Xposition Yposition Zposition Xrotation Yrotation Zrotation
										JOINT mixamorig:LeftHandPinky3
										{
											OFFSET 2.100021 0.000015 0.007705
											CHANNELS 6 Xposition Yposition Zposition Xrotation Yrotation Zrotation
											JOINT mixamorig:LeftHandPinky4
											{
												OFFSET 2.125504 0.000031 0.007517
												CHANNELS 6 Xposition Yposition Zposition Xrotation Yrotation Zrotation
												End Site
												{
													OFFSET 212.550781 0.000000 0.625752
												}
											}
										}
									}
								}
							}
						}
					}
				}
			}
		}
	}
	JOINT mixamorig:RightUpLeg
	{
		OFFSET -8.207787 -6.751648 -1.599560
		CHANNELS 6 Xposition Yposition Zposition Xrotation Yrotation Zrotation
		JOINT mixamorig:RightLeg
		{
			OFFSET -0.000002 -44.370117 0.345942
			CHANNELS 6 Xposition Yposition Zposition Xrotation Yrotation Zrotation
			JOINT mixamorig:RightFoot
			{
				OFFSET 0.000003 -44.423679 -3.043532
				CHANNELS 6 Xposition Yposition Zposition Xrotation Yrotation Zrotation
				JOINT mixamorig:RightToeBase
				{
					OFFSET -0.000002 -8.728671 10.710558
					CHANNELS 6 Xposition Yposition Zposition Xrotation Yrotation Zrotation
					JOINT mixamorig:RightToe_End
					{
						OFFSET -0.000001 -0.000679 9.278119
						CHANNELS 6 Xposition Yposition Zposition Xrotation Yrotation Zrotation
						End Site
						{
							OFFSET 0.000000 -0.067690 927.812134
						}
					}
				}
			}
		}
	}
	JOINT mixamorig:LeftUpLeg
	{
		OFFSET 8.207793 -6.751686 -1.599556
		CHANNELS 6 Xposition Yposition Zposition Xrotation Yrotation Zrotation
		JOINT mixamorig:LeftLeg
		{
			OFFSET -0.000004 -44.370014 0.346954
			CHANNELS 6 Xposition Yposition Zposition Xrotation Yrotation Zrotation
			JOINT mixamorig:LeftFoot
			{
				OFFSET -0.000001 -44.423672 -3.044401
				CHANNELS 6 Xposition Yposition Zposition Xrotation Yrotation Zrotation
				JOINT mixamorig:LeftToeBase
				{
					OFFSET -0.000002 -8.728669 10.710558
					CHANNELS 6 Xposition Yposition Zposition Xrotation Yrotation Zrotation
					JOINT mixamorig:LeftToe_End
					{
						OFFSET -0.000003 -0.000679 9.278133
						CHANNELS 6 Xposition Yposition Zposition Xrotation Yrotation Zrotation
						End Site
						{
							OFFSET 0.000000 -0.068021 927.813477
						}
					}
				}
			}
		}
	}
}
MOTION
Frames: 3
Frame Time: 0.033333
0.000006 104.270477 1.554256 0.000010 0.000003 -0.000113 -0.000005 10.181587 0.131522 0.000001 -0.000003 0.000084 -0.000000 9.893967 -1.470711 0.000001 0.000000 -0.000000 -0.000000 9.220802 -1.370642 0.000000 -0.000000 -0.000000 0.000001 16.740433 -2.049030 0.000000 -0.000000 -0.000000 0.000000 9.617859 1.685014 0.000000 0.000000 0.000000 0.000002 22.037384 7.501101 0.000000 -0.000000 0.000000 -4.569968 11.014880 -2.160881 0.000008 0.000001 -0.000038 -10.592846 -0.524802 -2.231823 73.814401 45.889077 -35.274119 -27.841536 0.000007 0.000544 -54.288416 102.511557 65.152423 -28.328844 0.000017 0.000024 -0.000323 -0.000048 0.000010 -2.464452 -1.573964 2.682390 -25.540301 -151.273104 33.851411 -3.215251 -1.872512 1.924618 152.654619 34.191008 22.615101 -2.654957 -1.527875 1.513069 153.172729 27.049226 -27.700438 -2.018842 -1.151990 1.108056 -0.000003 -0.000003 0.000002 -9.108397 -0.517569 2.260183 107.819023 17.106055 -23.379213 -3.700066 0.000313 0.001539 104.082090 13.576187 -17.320291 -2.850079 0.000370 -0.000215 105.242451 10.004654 -13.070777 -2.772171 0.000001 -0.000018 -0.000001 0.000000 0.000000 -9.532603 0.000267 0.000293 104.390583 15.932506 -20.632374 -3.700071 0.000324 0.004021 105.434277 11.389765 -14.801751 -2.950059 0.000343 -0.001723 109.596054 9.828635 -13.887806 -2.946616 0.000014 -0.000149 -0.000003 -0.000003 -0.000000 -9.103710 -0.042756 -1.864804 104.212697 17.860058 -22.770964 -3.379340 0.000300 -0.000744 106.997413 9.194106 -12.425943 -2.889746 0.000354 0.000684 112.951945 5.691606 -8.650104 -2.638793 -0.000029 0.000942 -0.000003 0.000003 -0.000001 -8.076751 -0.486377 -3.805999 94.559823 18.764603 -20.124746 -3.600035 0.000286 -0.003461 99.904719 8.204236 -9.333287 -2.100022 0.000330 -0.005416 106.094995 4.263914 -5.380023 -2.115796 -0.000054 -0.003680 0.000000 -0.000001 -0.000004 4.570446 11.014691 -2.160851 -0.000018 0.000010 -0.000021 10.592437 -0.524468 -2.232388 72.291993 -26.842773 19.775232 27.841831 0.000032 -0.000185 101.929597 -73.671213 85.467202 28.328846 -0.000029 0.000016 0.000024 -0.000091 0.000000 2.466019 -1.576162 2.681901 -28.058328 147.018005 -26.288386 3.217657 -1.871679 1.916380 145.690175 -34.456501 -42.828172 2.656082 -1.528584 1.514430 148.902727 -27.150794 30.651744 2.020879 -1.154070 1.115159 0.000003 0.000003 0.000004 9.109381 -0.517822 2.259751 99.282332 -16.702089 19.585851 3.700078 0.000175 -0.000444 98.446850 -17.081827 19.776104 2.850066 0.000230 0.000233 97.456834 -14.885567 16.931045 2.774880 -0.000015 -0.000027 0.000001 0.000000 -0.000000 9.533463 0.000256 -0.000079 101.733161 -15.832160 19.384849 3.700042 0.000206 -0.000360 102.759110 -14.199298 17.719565 2.950076 0.000192 -0.000176 101.381570 -17.409520 21.187496 2.952858 -0.000015 0.000062 -0.000000 -0.000000 -0.000000 9.104597 -0.042796 -1.865213 101.725982 -15.507285 19.000121 3.150079 0.000231 -0.000089 106.426853 -13.768371 18.346819 2.950060 0.000215 -0.000042 110.732188 -14.646755 21.082624 2.644319 0.000015 0.000056 0.000000 0.000001 -0.000001 8.077852 -0.486696 -3.806408 89.911606 -20.221166 20.794702 3.600018 0.000219 0.014580 93.826794 -12.674112 14.082172 2.100052 0.000230 0.007570 97.007818 -11.464001 13.488200 2.125489 -0.000002 0.007511 -0.000002 -0.000000 -0.000000 -8.207786 -6.751667 -1.599560 -0.077001 -0.000003 0.000080 -0.000002 -44.370110 0.345938 0.153719 -0.000000 -0.000000 0.000000 -44.423679 -3.043532 -0.076700 0.000000 -0.000002 -0.000006 -8.728667 10.710559 -0.000009 -0.000000 -0.000000 -0.000001 -0.000679 9.278123 0.000000 -0.000000 -0.000000 8.207792 -6.751710 -1.599556 -0.074518 -0.000003 0.000081 -0.000002 -44.370014 0.346960 0.148822 0.000002 0.000000 -0.000001 -44.423664 -3.044403 -0.074314 0.000000 -0.000002 -0.000004 -8.728671 10.710558 0.000007 -0.000000 -0.000000 0.000000 -0.000680 9.278137 -0.000000 0.000000 -0.000001 
0.000006 104.270477 1.554256 0.000010 0.000003 -0.000113 -0.000005 10.181587 0.131522 0.000001 -0.000003 0.000084 -0.000000 9.893967 -1.470711 0.000001 0.000000 -0.000000 -0.000000 9.220802 -1.370642 0.000000 -0.000000 -0.000000 0.000001 16.740433 -2.049030 0.000000 -0.000000 -0.000000 0.000000 9.617859 1.685014 0.000000 0.000000 0.000000 0.000002 22.037384 7.501101 0.000000 -0.000000 0.000000 -4.569968 11.014880 -2.160881 0.000008 0.000001 -0.000038 -10.592865 -0.524785 -2.231877 72.101785 37.834416 -28.014292 -27.841524 0.000015 0.000559 -48.943889 103.121916 59.662802 -28.328823 0.000021 0.000027 -0.000321 -0.000044 0.000008 -2.464406 -1.573880 2.682355 -38.718160 -152.045297 8.579883 -3.215231 -1.872485 1.924626 145.025338 33.166104 33.347586 -2.654972 -1.527864 1.513044 148.238464 28.730542 -17.013282 -2.018823 -1.152000 1.108058 -0.000004 0.000000 0.000004 -9.108360 -0.517559 2.260165 109.443809 14.533994 -20.499822 -3.700056 0.000312 0.001558 104.596083 12.221525 -15.741557 -2.850086 0.000381 -0.000232 103.280301 9.934087 -12.531927 -2.772164 -0.000015 -0.000018 -0.000000 -0.000005 0.000000 -9.532578 0.000272 0.000282 103.684689 14.492072 -18.561551 -3.700081 0.000323 0.004020 103.291988 12.182941 -15.242484 -2.950057 0.000347 -0.001772 104.746415 11.290898 -14.606008 -2.946625 -0.000000 -0.000152 -0.000000 -0.000003 0.000000 -9.103693 -0.042768 -1.864813 103.059666 17.812039 -22.256607 -3.379333 0.000317 -0.000762 106.013367 11.431415 -15.159086 -2.889773 0.000327 0.000726 111.340157 8.390657 -12.329668 -2.638793 0.000000 0.000938 0.000001 -0.000001 -0.000000 -8.076746 -0.486392 -3.805976 92.761079 21.335807 -22.200480 -3.600055 0.000278 -0.003479 96.521843 11.520441 -12.488916 -2.100022 0.000315 -0.005417 101.940628 6.348158 -7.553493 -2.115759 -0.000027 -0.003680 -0.000001 -0.000003 -0.000004 4.570446 11.014691 -2.160851 -0.000018 0.000010 -0.000021 10.592413 -0.524476 -2.232369 71.375067 -18.243650 13.157197 27.841824 0.000060 -0.000184 109.860471 -75.051034 95.142281 28.328846 -0.000045 0.000021 0.000023 -0.000088 -0.000000 2.466129 -1.576179 2.681890 -18.837158 152.131535 -45.945907 3.217791 -1.871714 1.916386 163.430704 -31.201353 2.854111 2.656094 -1.528620 1.514452 149.466860 -25.403741 44.582349 2.020888 -1.154078 1.115143 0.000003 0.000006 0.000001 9.109402 -0.517818 2.259753 102.391858 -18.249869 22.575903 3.700055 0.000219 -0.000448 99.296204 -12.161369 14.312951 2.850029 0.000256 0.000199 98.173225 -8.357726 9.636786 2.774879 -0.000017 -0.000029 -0.000002 0.000000 0.000000 9.533491 0.000257 -0.000085 104.596472 -17.503321 22.516651 3.700034 0.000223 -0.000379 102.811006 -9.814524 12.276542 2.950053 0.000236 -0.000204 103.084917 -10.313598 12.968875 2.952880 -0.000033 0.000062 -0.000001 0.000001 0.000000 9.104609 -0.042799 -1.865214 104.189481 -16.429967 21.010934 3.150053 0.000254 -0.000075 107.760960 -10.669083 14.586094 2.950023 0.000231 -0.000079 109.263021 -10.278309 14.444276 2.644333 0.000047 0.000057 0.000000 0.000000 0.000000 8.077855 -0.486683 -3.806386 93.936329 -20.134091 22.179859 3.600031 0.000237 0.014568 96.620348 -15.688565 18.169929 2.100037 0.000239 0.007566 97.734058 -12.324762 14.647658 2.125489 -0.000032 0.007514 -0.000005 -0.000001 -0.000000 -8.207786 -6.751667 -1.599560 -0.077001 -0.000003 0.000080 -0.000002 -44.370110 0.345938 0.153719 -0.000000 -0.000000 0.000000 -44.423679 -3.043532 -0.076700 0.000000 -0.000002 -0.000006 -8.728667 10.710559 -0.000009 -0.000000 -0.000000 -0.000001 -0.000679 9.278123 0.000000 -0.000000 -0.000000 8.207792 -6.751710 -1.599556 -0.074518 -0.000003 0.000081 -0.000002 -44.370014 0.346960 0.148822 0.000002 0.000000 -0.000001 -44.423664 -3.044403 -0.074314 0.000000 -0.000002 -0.000004 -8.728671 10.710558 0.000007 -0.000000 -0.000000 0.000000 -0.000680 9.278137 -0.000000 0.000000 -0.000001 
0.000006 104.270477 1.554256 0.000010 0.000003 -0.000113 -0.000005 10.181587 0.131522 0.000001 -0.000003 0.000084 -0.000000 9.893967 -1.470711 0.000001 0.000000 -0.000000 -0.000000 9.220802 -1.370642 0.000000 -0.000000 -0.000000 0.000001 16.740433 -2.049030 0.000000 -0.000000 -0.000000 0.000000 9.617859 1.685014 0.000000 0.000000 0.000000 0.000002 22.037384 7.501101 0.000000 -0.000000 0.000000 -4.569968 11.014880 -2.160881 0.000008 0.000001 -0.000038 -10.592863 -0.524795 -2.231853 70.822792 39.833673 -28.890816 -27.841526 -0.000006 0.000557 -43.855152 103.189521 53.843249 -28.328842 0.000020 0.000026 -0.000323 -0.000046 0.000010 -2.464405 -1.573767 2.682323 -47.495517 -163.174954 -8.960477 -3.215286 -1.872588 1.924665 152.381602 30.988838 1.526964 -2.654957 -1.527855 1.513046 145.503575 28.086061 -26.477829 -2.018838 -1.151998 1.108064 -0.000006 -0.000002 0.000004 -9.108374 -0.517546 2.260164 108.561417 15.912929 -22.062851 -3.700057 0.000322 0.001539 103.884698 11.522859 -14.657516 -2.850088 0.000377 -0.000234 101.788527 8.701276 -10.693091 -2.772156 -0.000015 -0.000017 -0.000001 0.000003 -0.000000 -9.532578 0.000286 0.000253 100.029719 13.661110 -16.422165 -3.700072 0.000340 0.003989 99.922860 10.075550 -11.868444 -2.950054 0.000325 -0.001811 99.599109 10.040072 -11.860260 -2.946626 -0.000000 -0.000159 -0.000000 0.000004 0.000000 -9.103678 -0.042729 -1.864848 99.323177 15.555582 -18.222864 -3.379340 0.000303 -0.000772 101.030888 9.874114 -11.991950 -2.889748 0.000358 0.000689 104.921377 7.736058 -10.116893 -2.638802 0.000000 0.000940 0.000000 -0.000001 0.000000 -8.076740 -0.486384 -3.806027 89.073986 17.967660 -17.534750 -3.600047 0.000258 -0.003495 91.864309 10.769333 -10.746104 -2.100028 0.000312 -0.005463 96.295244 6.913574 -7.466745 -2.115782 -0.000045 -0.003678 -0.000002 -0.000000 -0.000004 4.570446 11.014691 -2.160851 -0.000018 0.000010 -0.000021 10.592430 -0.524475 -2.232394 70.758567 -25.801337 18.476375 27.841843 0.000023 -0.000169 113.120562 -76.409292 100.003812 28.328829 -0.000027 0.000021 0.000024 -0.000089 0.000001 2.466182 -1.576163 2.681874 -7.252199 152.193390 -64.429284 3.217742 -1.871689 1.916394 158.594943 -34.516836 -16.122938 2.656094 -1.528633 1.514458 150.854194 -25.461668 41.415026 2.020883 -1.154095 1.115151 -0.000000 0.000004 0.000006 9.109415 -0.517827 2.259751 103.802312 -21.095014 26.701489 3.700074 0.000206 -0.000459 100.245614 -13.743040 16.436229 2.850054 0.000238 0.000194 98.489777 -9.828119 11.392919 2.774891 -0.000032 -0.000027 -0.000002 0.000000 -0.000002 9.533495 0.000236 -0.000076 102.462058 -18.893519 23.397998 3.700053 0.000217 -0.000361 103.254777 -10.943009 13.792016 2.950063 0.000227 -0.000200 103.244559 -11.225496 14.151209 2.952880 -0.000031 0.000062 0.000000 0.000001 0.000000 9.104599 -0.042807 -1.865217 100.816912 -17.335240 20.890289 3.150065 0.000253 -0.000074 105.506048 -9.429691 12.383999 2.950012 0.000224 -0.000068 106.890125 -8.478125 11.419827 2.644318 0.000030 0.000057 -0.000001 0.000001 -0.000000 8.077854 -0.486684 -3.806415 94.795738 -18.367866 20.587954 3.600014 0.000245 0.014575 99.988977 -12.579626 15.564427 2.100065 0.000250 0.007562 101.989211 -10.318618 13.305213 2.125510 -0.000030 0.007512 -0.000000 -0.000000 0.000000 -8.207786 -6.751667 -1.599560 -0.077001 -0.000003 0.000080 -0.000002 -44.370110 0.345938 0.153719 -0.000000 -0.000000 0.000000 -44.423679 -3.043532 -0.076700 0.000000 -0.000002 -0.000006 -8.728667 10.710559 -0.000009 -0.000000 -0.000000 -0.000001 -0.000679 9.278123 0.000000 -0.000000 -0.000000 8.207792 -6.751710 -1.599556 -0.074518 -0.000003 0.000081 -0.000002 -44.370014 0.346960 0.148822 0.000002 0.000000 -0.000001 -44.423664 -3.044403 -0.074314 0.000000 -0.000002 -0.000004 -8.728671 10.710558 0.000007 -0.000000 -0.000000 0.000000 -0.000680 9.278137 -0.000000 0.000000 -0.000001 
